<svg width="188" height="64" viewBox="0 0 188 64" fill="none" xmlns="http://www.w3.org/2000/svg">
<path d="M77.3373 17.1349L63.3669 48.6755H67.0607L70.7132 40.1337H83.6415L87.2166 48.6755H90.9516L77.3373 17.1349ZM72.0803 37.0196L77.2599 24.9585L82.3156 37.0196H72.0803Z" fill="white"/>
<path d="M93.918 17.294L117.53 41.8882V18.5714H120.899V50.035L97.2919 25.4818V48.6755H93.918V17.294Z" fill="white"/>
<path d="M144.186 22.2036C140.611 19.1716 136.918 18.5714 132.383 18.5714H126.682V48.6755H132.3C137.041 48.6755 140.653 48.0752 144.269 44.8842C147.596 41.9292 149.206 38.0559 149.206 33.6645C149.206 29.273 147.638 25.1586 144.186 22.2036ZM142.061 42.4474C139.291 45.0433 136.195 45.5614 132.502 45.5614H130.051V21.6854H132.502C136.077 21.6854 139.126 22.1625 141.896 24.5994C144.506 26.8772 145.832 30.1913 145.832 33.6234C145.832 37.0555 144.548 40.1337 142.061 42.4474Z" fill="white"/>
<path d="M156.836 18.5714H153.462V48.6755H156.836V18.5714Z" fill="white"/>
<path d="M173.618 17.1349L159.643 48.6755H163.336L166.989 40.1337H179.917L183.492 48.6755H187.227L173.618 17.1349ZM168.356 37.0196L173.536 24.9585L178.591 37.0196H168.356Z" fill="white"/>
<path d="M18.1645 48.6344L0.0773774 48.6652L11.948 17.3812H34.1675L18.1645 48.6344Z" fill="#FDFCFB"/>
<path d="M49.0252 21.6546V48.6806H29.9372L30.0146 26.949L18.8249 48.6806H17.7054L31.0567 22.496H27.853L14.5017 48.6806H12.9695L26.3208 22.496H23.1171L9.76582 48.6806H8.23363L21.5849 22.496H18.3812L5.02994 48.6806H3.49774L16.849 22.496H13.6453L0.294058 48.6806H0V21.6546C1.36195 9.4755 11.9016 0 24.51 0C37.1184 0 47.6632 9.4755 49.0252 21.6546Z" fill="#EF7918"/>
<path d="M3.49774 48.6806L3.46163 48.7524H0.257946L0.294058 48.6806H3.49774Z" fill="white"/>
<path d="M8.23363 48.6806L8.1975 48.7524H4.99382L5.02994 48.6806H8.23363Z" fill="white"/>
<path d="M12.9695 48.6806L12.9334 48.7524H9.72971L9.76582 48.6806H12.9695Z" fill="white"/>
<path d="M17.7054 48.6806L17.6693 48.7524H14.4656L14.5017 48.6806H17.7054Z" fill="white"/>
<path d="M69.2343 56.5275V57.5803C68.7093 57.1167 67.9898 56.8656 67.2995 56.8656C65.6564 56.8656 64.4022 58.2275 64.4022 59.8405C64.4022 61.4342 65.6467 62.7961 67.28 62.7961C67.9995 62.7961 68.6898 62.5257 69.2343 62.0427V63.1149C68.6704 63.4433 67.9509 63.6268 67.3092 63.6268C65.2189 63.6268 63.4883 61.9751 63.4883 59.8695C63.4883 57.7156 65.2286 56.0349 67.387 56.0349C68.0287 56.0349 68.6801 56.1895 69.2343 56.5275Z" fill="white"/>
<path d="M74.1357 56.0349C76.2358 56.0349 77.9761 57.7446 77.9761 59.8309C77.9761 61.9944 76.2552 63.6268 74.1357 63.6268C72.0162 63.6268 70.2953 61.9944 70.2953 59.8309C70.2953 57.7446 72.0357 56.0349 74.1357 56.0349ZM74.1357 62.7768C75.7205 62.7768 77.0622 61.4922 77.0622 59.8309C77.0622 58.2275 75.8566 56.8849 74.1357 56.8849C72.4148 56.8849 71.2092 58.2275 71.2092 59.8309C71.2092 61.4922 72.551 62.7768 74.1357 62.7768Z" fill="white"/>
<path d="M79.2607 63.4722V55.8418L84.7637 61.5694V56.1895H85.6776V63.7717L80.1747 58.044V63.4722H79.2607Z" fill="white"/>
<path d="M91.4543 57.136L90.7251 57.5707C90.4529 57.1167 90.1029 56.8849 89.5487 56.8849C88.9654 56.8849 88.3237 57.2809 88.3237 57.9184C88.3237 58.4883 88.8876 58.7877 89.3445 58.9616L89.8696 59.1644C90.9099 59.5701 91.6877 60.1399 91.6877 61.3569C91.6877 62.6802 90.6571 63.6268 89.3445 63.6268C88.1584 63.6268 87.2347 62.7575 87.0792 61.5888L88.0028 61.3956C87.9931 62.1973 88.6348 62.7768 89.4223 62.7768C90.2098 62.7768 90.7738 62.12 90.7738 61.3569C90.7738 60.5746 90.1418 60.2365 89.5098 59.9757L89.0042 59.7632C88.1681 59.4059 87.4098 58.9326 87.4098 57.9184C87.4098 56.74 88.4598 56.0349 89.5682 56.0349C90.3848 56.0349 91.0557 56.431 91.4543 57.136Z" fill="white"/>
<path d="M95.15 57.0201V63.4722H94.236V57.0201H92.4957V56.1895H96.8903V57.0201H95.15Z" fill="white"/>
<path d="M100.342 60.3041L102.656 63.4722H101.548L99.3895 60.3911H99.0103V63.4722H98.0964V56.1895H99.2048C99.8562 56.1895 100.556 56.1991 101.14 56.5275C101.752 56.8849 102.102 57.5707 102.102 58.2661C102.102 59.3093 101.402 60.1786 100.342 60.3041ZM99.0103 57.0008V59.6377H99.302C100.235 59.6377 101.247 59.4638 101.247 58.3048C101.247 57.165 100.158 57.0008 99.2534 57.0008H99.0103Z" fill="white"/>
<path d="M103.735 56.1895H104.649V60.4877C104.649 61.6757 105.009 62.7768 106.419 62.7768C107.828 62.7768 108.188 61.6757 108.188 60.4877V56.1895H109.102V60.7967C109.102 62.4001 108.101 63.6268 106.419 63.6268C104.737 63.6268 103.735 62.4001 103.735 60.7967V56.1895Z" fill="white"/>
<path d="M116.189 56.5275V57.5803C115.664 57.1167 114.945 56.8656 114.254 56.8656C112.611 56.8656 111.357 58.2275 111.357 59.8405C111.357 61.4342 112.602 62.7961 114.235 62.7961C114.954 62.7961 115.645 62.5257 116.189 62.0427V63.1149C115.625 63.4433 114.906 63.6268 114.264 63.6268C112.174 63.6268 110.443 61.9751 110.443 59.8695C110.443 57.7156 112.184 56.0349 114.342 56.0349C114.984 56.0349 115.635 56.1895 116.189 56.5275Z" fill="white"/>
<path d="M123.103 56.5275V57.5803C122.578 57.1167 121.859 56.8656 121.168 56.8656C119.525 56.8656 118.271 58.2275 118.271 59.8405C118.271 61.4342 119.516 62.7961 121.149 62.7961C121.869 62.7961 122.559 62.5257 123.103 62.0427V63.1149C122.539 63.4433 121.82 63.6268 121.178 63.6268C119.088 63.6268 117.357 61.9751 117.357 59.8695C117.357 57.7156 119.098 56.0349 121.256 56.0349C121.898 56.0349 122.549 56.1895 123.103 56.5275Z" fill="white"/>
<path d="M125.564 56.1895V63.4722H124.65V56.1895H125.564Z" fill="white"/>
<path d="M130.751 56.0349C132.851 56.0349 134.591 57.7446 134.591 59.8309C134.591 61.9944 132.87 63.6268 130.751 63.6268C128.631 63.6268 126.91 61.9944 126.91 59.8309C126.91 57.7446 128.651 56.0349 130.751 56.0349ZM130.751 62.7768C132.335 62.7768 133.677 61.4922 133.677 59.8309C133.677 58.2275 132.471 56.8849 130.751 56.8849C129.03 56.8849 127.824 58.2275 127.824 59.8309C127.824 61.4922 129.166 62.7768 130.751 62.7768Z" fill="white"/>
<path d="M135.876 63.4722V55.8418L141.379 61.5694V56.1895H142.292V63.7717L136.79 58.044V63.4722H135.876Z" fill="white"/>
<path d="M144.083 63.4722V56.1895H148.021V57.0201H144.997V59.0581H147.933V59.8888H144.997V62.6416H148.021V63.4722H144.083Z" fill="white"/>
<path d="M153.625 57.136L152.896 57.5707C152.624 57.1167 152.274 56.8849 151.72 56.8849C151.137 56.8849 150.495 57.2809 150.495 57.9184C150.495 58.4883 151.059 58.7877 151.516 58.9616L152.041 59.1644C153.081 59.5701 153.859 60.1399 153.859 61.3569C153.859 62.6802 152.828 63.6268 151.516 63.6268C150.33 63.6268 149.406 62.7575 149.25 61.5888L150.174 61.3956C150.164 62.1973 150.806 62.7768 151.593 62.7768C152.381 62.7768 152.945 62.12 152.945 61.3569C152.945 60.5746 152.313 60.2365 151.681 59.9757L151.175 59.7632C150.339 59.4059 149.581 58.9326 149.581 57.9184C149.581 56.74 150.631 56.0349 151.739 56.0349C152.556 56.0349 153.227 56.431 153.625 57.136Z" fill="white"/>
</svg>
