<svg width="139" height="28" viewBox="0 0 139 28" fill="none" xmlns="http://www.w3.org/2000/svg">
<g clip-path="url(#clip0_124_1280)">
<path d="M138.335 0H135.795V18.3231H138.335V0Z" fill="#7E5D38"/>
<path d="M131.701 0H129.165V18.3231H131.701V0Z" fill="#7E5D38"/>
<path d="M7.49553 0L0 18.3231H1.96145C2.17861 18.3231 2.36424 18.263 2.51135 18.1463C2.65846 18.0262 2.76004 17.8894 2.81257 17.736L4.56387 13.3128L5.27139 11.5249L8.21356 4.08292C8.4062 3.62259 8.59184 3.04551 8.77747 2.35502C8.86504 2.68859 8.9561 2.99881 9.05418 3.29569C9.15225 3.59257 9.24332 3.84608 9.33088 4.06957L12.273 11.5249L12.9806 13.3128L14.7354 17.736C14.8019 17.9061 14.907 18.0496 15.0471 18.1563C15.1872 18.2697 15.3693 18.3231 15.597 18.3231H17.5584L10.0594 0H7.49553Z" fill="#7E5D38"/>
<path d="M32.7037 12.6157L36.5215 17.7994C36.7387 18.1497 37.0784 18.3231 37.5408 18.3231H39.7894L36.4515 13.8233C35.4988 12.6124 32.7002 12.6157 32.7002 12.6157H32.7037Z" fill="#7E5D38"/>
<path d="M35.4287 9.55345C35.9996 9.23656 36.483 8.85629 36.8823 8.4093C37.278 7.96231 37.5828 7.45529 37.7929 6.89489C38.0031 6.33115 38.1047 5.72738 38.1047 5.08026C38.1047 4.30303 37.9681 3.60253 37.6984 2.97875C37.4287 2.35164 37.0083 1.81793 36.4479 1.37428C35.8875 0.930625 35.173 0.593718 34.3114 0.356882C33.4497 0.123382 32.4235 0.0032959 31.2396 0.0032959H25.9437C25.9437 1.56108 28.4691 1.95803 28.4691 1.95803H31.2431C32.7072 1.95803 33.807 2.23489 34.539 2.78862C35.2711 3.34568 35.6353 4.16627 35.6353 5.25705C35.6353 5.7941 35.5408 6.28445 35.3481 6.7281C35.152 7.17175 34.8683 7.55202 34.49 7.87225C34.1117 8.19248 33.6389 8.43932 33.0785 8.61611C32.518 8.78957 31.8666 8.8763 31.1345 8.8763H28.4655V5.41716H25.9402V18.323H28.4655V10.6776H30.3885C30.7457 10.6776 31.7054 10.7243 32.4095 10.5675L33.2501 10.4074C33.9751 10.2439 34.8578 9.86701 35.4287 9.55345Z" fill="#7E5D38"/>
<path d="M56.0798 8.89969C56.6718 8.7229 57.1901 8.4894 57.6315 8.20253C58.0728 7.91565 58.4371 7.59543 58.7243 7.23517C59.0115 6.87825 59.2286 6.4913 59.3722 6.08101C59.5159 5.66738 59.5859 5.23374 59.5859 4.78008C59.5859 4.03622 59.4598 3.37241 59.2076 2.77865C58.9554 2.18489 58.5597 1.68454 58.0238 1.27758C57.4879 0.867286 56.8049 0.553729 55.9712 0.330236C55.1341 0.110079 54.1429 0 52.994 0V1.95473C54.3881 1.95473 55.4178 2.20491 56.0798 2.70193C56.7453 3.19895 57.0746 3.98952 57.0746 5.07362C57.0746 5.53395 56.994 5.95759 56.8259 6.34453C56.6613 6.73481 56.4056 7.06171 56.0588 7.33524C55.7156 7.60877 55.2777 7.82225 54.7523 7.9757C54.2235 8.12914 53.6035 8.20586 52.889 8.20586H49.5405V1.95473C49.5405 1.95473 49.0712 0 47.0151 0V18.3231H53.635C54.6823 18.3231 55.614 18.1997 56.4336 17.9462C57.2532 17.696 57.9432 17.3391 58.5071 16.8787C59.0675 16.4184 59.4948 15.868 59.7891 15.2275C60.0833 14.5871 60.2269 13.8832 60.2269 13.106C60.2269 11.9652 59.8801 11.0412 59.1866 10.3407C58.4931 9.63355 57.4563 9.15654 56.0798 8.89969ZM57.4949 14.3803C57.3372 14.7839 57.0921 15.1341 56.7558 15.4277C56.4196 15.7212 55.9888 15.9514 55.4669 16.1115C54.9415 16.275 54.318 16.3517 53.593 16.3517H49.537V9.97045H53.593C54.9695 9.97045 56.0028 10.2473 56.6928 10.7977C57.3793 11.3481 57.726 12.0953 57.726 13.0426C57.726 13.5263 57.649 13.9733 57.4914 14.3769L57.4949 14.3803Z" fill="#7E5D38"/>
<path d="M72.3074 0H69.7681V18.3231H72.3074V0Z" fill="#7E5D38"/>
<path d="M94.0269 2.52847C93.2143 1.72123 92.2406 1.10079 91.1022 0.660472C89.9639 0.220157 88.7065 0 87.3299 0H80.3318C80.3318 1.92137 82.8712 2.0081 82.8712 2.0081H87.3299C88.3422 2.0081 89.2564 2.16822 90.076 2.49178C90.8956 2.81534 91.5926 3.28568 92.167 3.89945C92.7414 4.51322 93.1863 5.26376 93.5015 6.15106C93.8167 7.03836 93.9743 8.04241 93.9743 9.16988C93.9743 10.2974 93.8167 11.2981 93.5015 12.1854C93.1898 13.0727 92.7449 13.8232 92.167 14.4303C91.5891 15.0407 90.8956 15.5077 90.076 15.8313C89.2564 16.1549 88.3422 16.3183 87.3299 16.3183H82.8712C82.8712 16.3183 80.3318 16.325 80.3318 18.3264H87.3299C88.7065 18.3264 89.9674 18.1063 91.1022 17.6693C92.2406 17.2323 93.2143 16.6085 94.0269 15.808C94.8395 15.0074 95.4629 14.0434 95.9113 12.9192C96.3526 11.7918 96.5768 10.5442 96.5768 9.17322C96.5768 7.80224 96.3526 6.55135 95.9113 5.42387C95.4664 4.29974 94.8395 3.33572 94.0269 2.52847Z" fill="#7E5D38"/>
<path d="M115.62 16.305H106.594V10.0505H113.893V8.10913H106.594V2.02144H115.61V0H104.058V18.3231H115.61L115.62 16.305Z" fill="#7E5D38"/>
<path d="M135.434 25.9619C135.301 26.0219 135.207 26.092 135.147 26.172C135.088 26.2521 135.056 26.3422 135.056 26.4422C135.056 26.5356 135.074 26.619 135.105 26.6857C135.137 26.7525 135.179 26.8092 135.235 26.8559C135.291 26.8992 135.354 26.9326 135.427 26.9526C135.501 26.9726 135.582 26.9826 135.666 26.9826C135.778 26.9826 135.883 26.9726 135.977 26.9493C136.072 26.9259 136.159 26.8926 136.244 26.8525C136.328 26.8092 136.408 26.7591 136.485 26.6991C136.562 26.639 136.636 26.5723 136.709 26.4956V25.7484C136.412 25.7584 136.156 25.7818 135.949 25.8185C135.739 25.8552 135.571 25.9052 135.438 25.9619H135.434Z" fill="white"/>
<path d="M104.072 22.1224V27.9966H139V22.1224H104.072ZM135.277 23.847C135.511 23.7536 135.774 23.7036 136.058 23.7036C136.265 23.7036 136.447 23.7369 136.608 23.8036C136.769 23.8704 136.902 23.9638 137.011 24.0805L136.524 24.4308C136.401 24.2873 136.219 24.2173 135.981 24.2173C135.82 24.2173 135.687 24.2373 135.578 24.2773C135.469 24.3173 135.378 24.3607 135.298 24.4074C135.221 24.4574 135.151 24.5008 135.095 24.5408C135.035 24.5809 134.979 24.6009 134.927 24.6009C134.884 24.6009 134.846 24.5875 134.814 24.5675C134.783 24.5475 134.755 24.5175 134.734 24.4841L134.618 24.2806C134.821 24.0905 135.042 23.9437 135.277 23.8503V23.847ZM106.745 27.4262H106.093V23.827C106.556 23.827 106.745 24.7443 106.745 24.7443V27.4296V27.4262ZM111.084 27.4262H110.433V25.1346C110.433 24.8544 110.37 24.6376 110.244 24.4941C110.118 24.3474 109.936 24.274 109.697 24.274C109.589 24.274 109.487 24.2907 109.393 24.3273C109.298 24.364 109.214 24.4174 109.141 24.4908C109.067 24.5642 109.011 24.6509 108.969 24.7577C108.927 24.8644 108.906 24.9912 108.906 25.1313V27.4229H108.254V25.1313C108.254 24.841 108.195 24.6276 108.076 24.4841C107.957 24.3407 107.785 24.2706 107.557 24.2706L107.134 23.9137C107.284 23.7669 107.519 23.7669 107.743 23.7669C107.992 23.7669 108.191 23.8337 108.345 23.9704C108.5 24.1072 108.612 24.2873 108.678 24.5175C108.731 24.3874 108.801 24.274 108.881 24.1806C108.965 24.0872 109.06 24.0071 109.165 23.9471C109.27 23.887 109.379 23.8403 109.498 23.8103C109.613 23.7836 109.736 23.7669 109.855 23.7669C110.048 23.7669 110.223 23.797 110.373 23.857C110.524 23.9171 110.654 24.0071 110.759 24.1205C110.864 24.2373 110.944 24.3774 111 24.5475C111.056 24.7176 111.084 24.9111 111.084 25.1279V27.4196V27.4262ZM114.524 27.4262C114.321 27.4262 113.957 27.3929 113.802 27.3295C113.648 27.2661 113.519 27.1727 113.414 27.0526C113.309 26.9359 113.232 26.7891 113.179 26.6223C113.126 26.4522 113.102 26.2687 113.102 26.0653V23.7703H113.75V26.0653C113.75 26.3388 113.813 26.5489 113.939 26.699C114.069 26.8491 114.261 26.9225 114.524 26.9225V27.4262ZM116.163 27.3662C115.652 27.3662 115.519 26.4188 115.519 26.4188V23.7669H116.163V27.3662ZM118.135 24.264C118.107 24.2406 118.097 24.2073 118.097 24.1572V23.9037L118.699 23.8303L118.85 22.7195C118.857 22.6862 118.874 22.6562 118.899 22.6328C118.923 22.6095 118.958 22.5994 118.997 22.5994H119.326V23.8403H120.391V24.2973H118.237C118.198 24.2973 118.167 24.284 118.139 24.264H118.135ZM120.072 27.3395C119.914 27.3995 119.753 27.4262 119.585 27.4262C119.294 27.4262 119.07 27.3462 118.916 27.1894C118.759 27.0293 118.682 26.8024 118.682 26.5056V25.238C118.682 25.238 118.885 24.6843 119.33 24.6843V26.4622C119.33 26.6156 119.365 26.7257 119.442 26.7991C119.519 26.8725 119.613 26.9092 119.732 26.9092C119.799 26.9092 119.858 26.8992 119.907 26.8825C119.956 26.8658 120.002 26.8458 120.037 26.8225C120.072 26.8024 120.104 26.7824 120.132 26.7624C120.156 26.7457 120.177 26.7357 120.198 26.7357C120.233 26.7357 120.265 26.7557 120.289 26.7958L120.478 27.0993C120.366 27.2027 120.233 27.2795 120.076 27.3395H120.072ZM123.799 27.4262H123.154V23.827H123.799V27.4262ZM123.9 22.8696C123.876 22.923 123.841 22.9697 123.799 23.0131C123.757 23.0531 123.708 23.0865 123.648 23.1098C123.592 23.1332 123.533 23.1465 123.47 23.1465C123.407 23.1465 123.347 23.1332 123.294 23.1098C123.242 23.0865 123.193 23.0531 123.151 23.0131C123.109 22.973 123.077 22.9263 123.053 22.8696C123.028 22.8163 123.018 22.7596 123.018 22.6962C123.018 22.6328 123.028 22.5761 123.053 22.5194C123.077 22.4627 123.109 22.416 123.151 22.3726C123.193 22.3326 123.242 22.2992 123.294 22.2759C123.35 22.2525 123.407 22.2392 123.47 22.2392C123.533 22.2392 123.592 22.2525 123.648 22.2759C123.704 22.2992 123.753 22.3326 123.799 22.3726C123.841 22.4126 123.876 22.4627 123.9 22.5194C123.925 22.5761 123.939 22.6328 123.939 22.6962C123.939 22.7596 123.925 22.8163 123.9 22.8696ZM127.06 27.4262H126.412V22.1925H127.06V27.4262ZM131.242 27.4262H130.66L129.158 23.827H129.683C129.736 23.827 129.781 23.8403 129.816 23.867C129.851 23.8937 129.872 23.9237 129.886 23.9604L130.821 26.2787C130.85 26.3655 130.878 26.4489 130.899 26.5356C130.92 26.619 130.941 26.7024 130.962 26.7824C130.979 26.699 131 26.6156 131.021 26.5356C131.042 26.4522 131.07 26.3655 131.102 26.2787L132.047 23.9604C132.061 23.9237 132.086 23.8904 132.121 23.867C132.156 23.8403 132.194 23.8303 132.24 23.8303H132.744L131.242 27.4296V27.4262ZM137.343 27.3695H137.056C136.993 27.3695 136.944 27.3595 136.909 27.3395C136.877 27.3195 136.849 27.2795 136.828 27.2194L136.755 26.8792C136.657 26.9692 136.562 27.046 136.471 27.1127C136.377 27.1794 136.282 27.2361 136.18 27.2828C136.079 27.3295 135.97 27.3628 135.855 27.3895C135.739 27.4129 135.613 27.4262 135.473 27.4262C135.333 27.4262 135.196 27.4062 135.07 27.3662C134.944 27.3262 134.835 27.2694 134.741 27.1894C134.646 27.1127 134.573 27.0126 134.52 26.8925C134.464 26.7724 134.44 26.6323 134.44 26.4689C134.44 26.3254 134.482 26.1887 134.559 26.0586C134.639 25.9252 134.769 25.8084 134.948 25.7083C135.126 25.6049 135.361 25.5215 135.648 25.4582C135.935 25.3948 136.289 25.3547 136.709 25.3481C136.709 25.3481 136.853 24.8644 137.34 24.8644V27.3695H137.343Z" fill="white"/>
<path d="M136.709 25.3481C136.289 25.3581 135.935 25.3948 135.648 25.4581C135.357 25.5249 135.126 25.6082 134.948 25.7083C134.769 25.8117 134.639 25.9285 134.559 26.0586C134.478 26.1887 134.44 26.3254 134.44 26.4689C134.44 26.6323 134.468 26.7757 134.52 26.8925C134.576 27.0126 134.65 27.1127 134.741 27.1894C134.835 27.2694 134.944 27.3261 135.07 27.3662C135.196 27.4062 135.329 27.4262 135.473 27.4262C135.617 27.4262 135.739 27.4129 135.855 27.3895C135.97 27.3662 136.079 27.3295 136.18 27.2828C136.282 27.2361 136.377 27.1794 136.471 27.1127C136.562 27.0459 136.657 26.9692 136.755 26.8792L136.828 27.2194C136.849 27.2794 136.874 27.3195 136.909 27.3395C136.944 27.3595 136.993 27.3695 137.056 27.3695H137.343V24.8644C136.853 24.8644 136.713 25.3481 136.713 25.3481H136.709ZM136.709 26.4955C136.636 26.5723 136.562 26.639 136.485 26.699C136.408 26.7591 136.328 26.8091 136.244 26.8525C136.159 26.8958 136.072 26.9292 135.977 26.9492C135.883 26.9726 135.778 26.9826 135.666 26.9826C135.578 26.9826 135.501 26.9726 135.427 26.9525C135.354 26.9325 135.291 26.8992 135.235 26.8558C135.179 26.8124 135.137 26.7557 135.105 26.6857C135.074 26.6156 135.056 26.5356 135.056 26.4422C135.056 26.3421 135.084 26.252 135.147 26.172C135.207 26.0919 135.301 26.0219 135.434 25.9618C135.568 25.9018 135.736 25.8551 135.946 25.8184C136.156 25.7817 136.408 25.7584 136.706 25.7483V26.4955H136.709Z" fill="#7E5D38"/>
<path d="M134.814 24.5643C134.846 24.5876 134.884 24.5976 134.926 24.5976C134.982 24.5976 135.038 24.5776 135.095 24.5376C135.151 24.4976 135.221 24.4542 135.298 24.4042C135.375 24.3575 135.469 24.3108 135.578 24.2741C135.686 24.234 135.82 24.214 135.981 24.214C136.219 24.214 136.397 24.2841 136.524 24.4275L137.01 24.0773C136.902 23.9605 136.765 23.8671 136.608 23.8004C136.447 23.7337 136.264 23.7003 136.058 23.7003C135.771 23.7003 135.511 23.747 135.277 23.8438C135.042 23.9372 134.821 24.0806 134.618 24.2741L134.734 24.4775C134.755 24.5109 134.783 24.5376 134.814 24.5609V24.5643Z" fill="#7E5D38"/>
<path d="M123.795 22.376C123.753 22.336 123.704 22.3026 123.645 22.2792C123.589 22.2559 123.529 22.2426 123.466 22.2426C123.403 22.2426 123.343 22.2559 123.291 22.2792C123.238 22.3026 123.189 22.336 123.147 22.376C123.105 22.416 123.074 22.466 123.049 22.5228C123.025 22.5795 123.014 22.6362 123.014 22.6995C123.014 22.7629 123.025 22.8196 123.049 22.873C123.074 22.9264 123.105 22.9731 123.147 23.0164C123.189 23.0565 123.238 23.0898 123.291 23.1132C123.347 23.1365 123.403 23.1499 123.466 23.1499C123.529 23.1499 123.589 23.1365 123.645 23.1132C123.701 23.0898 123.75 23.0565 123.795 23.0164C123.837 22.9764 123.872 22.9297 123.897 22.873C123.921 22.8196 123.935 22.7629 123.935 22.6995C123.935 22.6362 123.921 22.5795 123.897 22.5228C123.872 22.466 123.837 22.4193 123.795 22.376Z" fill="#7E5D38"/>
<path d="M123.795 23.827H123.151V27.4263H123.795V23.827Z" fill="#7E5D38"/>
<path d="M127.063 22.1925H126.415V27.4262H127.063V22.1925Z" fill="#7E5D38"/>
<path d="M110.762 24.1238C110.657 24.0071 110.527 23.9204 110.377 23.8603C110.226 23.8003 110.055 23.7703 109.858 23.7703C109.739 23.7703 109.617 23.7836 109.501 23.8136C109.386 23.8436 109.274 23.887 109.168 23.9504C109.063 24.0138 108.969 24.0905 108.885 24.1839C108.801 24.2773 108.734 24.3907 108.682 24.5208C108.615 24.2906 108.503 24.1105 108.349 23.9737C108.195 23.837 107.995 23.7703 107.746 23.7703C107.522 23.7703 107.288 23.7703 107.137 23.917L107.561 24.274C107.788 24.274 107.96 24.344 108.079 24.4874C108.198 24.6309 108.258 24.8444 108.258 25.1346V27.4262H108.909V25.1346C108.909 24.9911 108.93 24.8677 108.972 24.761C109.014 24.6542 109.07 24.5642 109.144 24.4941C109.217 24.4241 109.302 24.3674 109.396 24.3307C109.491 24.294 109.592 24.2773 109.701 24.2773C109.939 24.2773 110.121 24.3507 110.247 24.4974C110.373 24.6409 110.436 24.8577 110.436 25.1379V27.4295H111.088V25.1379C111.088 24.9211 111.06 24.7276 111.004 24.5575C110.948 24.3874 110.867 24.2439 110.762 24.1305V24.1238Z" fill="#7E5D38"/>
<path d="M106.093 23.8271V27.4263H106.745V24.7411C106.745 24.7411 106.556 23.8237 106.093 23.8237V23.8271Z" fill="#7E5D38"/>
<path d="M120.195 26.7358C120.177 26.7358 120.153 26.7458 120.128 26.7625C120.104 26.7792 120.072 26.7992 120.033 26.8225C119.998 26.8425 119.953 26.8625 119.904 26.8826C119.855 26.8992 119.795 26.9092 119.729 26.9092C119.61 26.9092 119.512 26.8726 119.438 26.7992C119.364 26.7258 119.326 26.6124 119.326 26.4623V24.6843C118.881 24.6843 118.678 25.2381 118.678 25.2381V26.5056C118.678 26.8058 118.755 27.0327 118.913 27.1894C119.07 27.3496 119.291 27.4263 119.582 27.4263C119.75 27.4263 119.911 27.3996 120.069 27.3396C120.226 27.2795 120.363 27.2028 120.471 27.0994L120.282 26.7958C120.258 26.7558 120.226 26.7358 120.191 26.7358H120.195Z" fill="#7E5D38"/>
<path d="M119.326 24.2974H120.391V23.8404H119.326V22.5995H118.997C118.955 22.5995 118.923 22.6095 118.899 22.6328C118.874 22.6562 118.857 22.6862 118.85 22.7196L118.699 23.8304L118.097 23.9038V24.1573C118.097 24.204 118.111 24.2407 118.135 24.264C118.163 24.2874 118.195 24.2974 118.233 24.2974H119.326Z" fill="#7E5D38"/>
<path d="M115.519 26.4189C115.519 26.4189 115.652 27.3662 116.163 27.3662V23.767H115.519V26.4189Z" fill="#7E5D38"/>
<path d="M113.747 26.0652V23.7703H113.099V26.0652C113.099 26.2687 113.127 26.4555 113.176 26.6223C113.228 26.7891 113.305 26.9325 113.41 27.0526C113.515 27.1727 113.645 27.2628 113.799 27.3295C113.953 27.3962 114.321 27.4262 114.521 27.4262V26.9225C114.258 26.9225 114.065 26.8491 113.936 26.699C113.81 26.5489 113.747 26.3388 113.747 26.0652Z" fill="#7E5D38"/>
<path d="M132.117 23.8638C132.082 23.8904 132.058 23.9205 132.044 23.9572L131.098 26.2755C131.067 26.3622 131.039 26.4456 131.018 26.5323C130.997 26.6157 130.976 26.6991 130.958 26.7792C130.937 26.6958 130.916 26.6124 130.895 26.5323C130.874 26.4489 130.85 26.3622 130.818 26.2755L129.883 23.9572C129.869 23.9205 129.848 23.8904 129.813 23.8638C129.778 23.8371 129.736 23.8237 129.68 23.8237H129.154L130.657 27.423H131.238L132.741 23.8237H132.237C132.191 23.8237 132.149 23.8337 132.117 23.8604V23.8638Z" fill="#7E5D38"/>
</g>
<defs>
<clipPath id="clip0_124_1280">
<rect width="139" height="28" fill="white"/>
</clipPath>
</defs>
</svg>
