<svg width="28" height="28" viewBox="0 0 28 28" fill="none" xmlns="http://www.w3.org/2000/svg">
<g clip-path="url(#clip0_124_1545)">
<path d="M26.4446 0H1.5554C0.696267 0 0 0.696267 0 1.5554V26.4441C0 27.3033 0.696267 27.9995 1.5554 27.9995H14.9567V17.1729H11.3199V12.9341H14.9567V9.82287C14.9567 6.2062 17.1654 4.23547 20.4013 4.23547C21.4886 4.2322 22.5773 4.2882 23.66 4.40207V8.16667H21.4279C19.6733 8.16667 19.3312 9.0034 19.3312 10.2279V12.9267H23.5265L22.9819 17.1654H19.3293V28H26.4446C27.3037 28 28 27.3037 28 26.4446V1.5554C28 0.696267 27.3037 0 26.4446 0Z" fill="#A39991"/>
</g>
<defs>
<clipPath id="clip0_124_1545">
<rect width="28" height="28" fill="white"/>
</clipPath>
</defs>
</svg>
