<svg width="37" height="23" viewBox="0 0 37 23" fill="none" xmlns="http://www.w3.org/2000/svg">
<path d="M3.06418 22.25C2.23954 22.25 1.551 21.9738 0.998568 21.4214C0.446137 20.8689 0.169922 20.1804 0.169922 19.3558V3.64421C0.169922 2.8196 0.446137 2.13108 0.998568 1.57865C1.551 1.02622 2.23954 0.75 3.06418 0.75H18.7757C19.6003 0.75 20.2889 1.02622 20.8413 1.57865C21.3938 2.13108 21.67 2.8196 21.67 3.64421V19.3558C21.67 20.1804 21.3938 20.8689 20.8413 21.4214C20.2889 21.9738 19.6003 22.25 18.7757 22.25H3.06418ZM3.06418 20.4583H18.7757C19.0514 20.4583 19.304 20.3435 19.5337 20.1138C19.7634 19.8841 19.8783 19.6314 19.8783 19.3558V3.64421C19.8783 3.3686 19.7634 3.11593 19.5337 2.8862C19.304 2.65651 19.0514 2.54167 18.7757 2.54167H3.06418C2.78853 2.54167 2.53586 2.65651 2.30617 2.8862C2.07645 3.11593 1.96159 3.3686 1.96159 3.64421V19.3558C1.96159 19.6314 2.07645 19.8841 2.30617 20.1138C2.53586 20.3435 2.78853 20.4583 3.06418 20.4583ZM4.5802 16.4615H17.2597L13.4283 11.2933L10.0241 15.7725L7.51575 12.4579L4.5802 16.4615ZM27.4584 22.25V0.75H29.2501V22.25H27.4584ZM35.0385 22.25V0.75H36.8302V22.25H35.0385Z" fill="#EF7918"/>
</svg>
