<svg width="97" height="97" viewBox="0 0 97 97" fill="none" xmlns="http://www.w3.org/2000/svg">
<rect width="97" height="97" rx="15" fill="white"/>
<path d="M40.1004 79.8499L17.0984 79.8891L32.1947 40.1042H60.4519L40.1004 79.8499Z" fill="#FDFCFB"/>
<path d="M79.3468 45.5389V79.9086H55.072L55.1705 52.2719L40.9402 79.9086H39.5165L56.4957 46.6089H52.4215L35.4423 79.9086H33.4937L50.473 46.6089H46.3987L29.4195 79.9086H27.471L44.4502 46.6089H40.376L23.3967 79.9086H21.4482L38.4274 46.6089H34.3532L17.374 79.9086H17V45.5389C18.732 30.0503 32.1357 18 48.1701 18C64.2046 18 77.6148 30.0503 79.3468 45.5389Z" fill="#EF7918"/>
<path d="M21.4482 79.9086L21.4023 80H17.328L17.374 79.9086H21.4482Z" fill="white"/>
<path d="M27.471 79.9086L27.425 80H23.3508L23.3967 79.9086H27.471Z" fill="white"/>
<path d="M33.4937 79.9086L33.4478 80H29.3736L29.4195 79.9086H33.4937Z" fill="white"/>
<path d="M39.5165 79.9086L39.4706 80H35.3963L35.4423 79.9086H39.5165Z" fill="white"/>
</svg>
