<svg width="28" height="28" viewBox="0 0 28 28" fill="none" xmlns="http://www.w3.org/2000/svg">
<g clip-path="url(#clip0_124_1541)">
<path d="M13.9883 6.78711C10.0174 6.78711 6.79883 10.0011 6.79883 13.9655C6.79883 17.9298 10.0178 21.1439 13.9883 21.1439C17.9588 21.1439 21.1778 17.9298 21.1778 13.9655C21.1778 10.0011 17.9588 6.78711 13.9883 6.78711ZM13.9883 18.628C11.4088 18.6289 9.31676 16.5415 9.31583 13.966C9.3149 11.3904 11.4056 9.30161 13.9851 9.30068H13.9883C16.5678 9.30161 18.6585 11.3904 18.6576 13.966C18.6566 16.5401 16.5669 18.627 13.9883 18.628Z" fill="#A39991"/>
<path d="M23.1172 6.79219C23.2655 5.87994 22.6451 5.02038 21.7314 4.8723C20.8178 4.72422 19.9569 5.3437 19.8086 6.25595C19.6603 7.16819 20.2807 8.02776 21.1944 8.17583C22.108 8.32391 22.9689 7.70443 23.1172 6.79219Z" fill="#A39991"/>
<path d="M27.2583 4.82176C26.5307 2.94531 25.0441 1.46148 23.1642 0.735862C22.0765 0.328343 20.9271 0.107585 19.7652 0.0838323C18.2678 0.0186294 17.7935 0 13.9965 0C10.1995 0 9.71303 0 8.22783 0.0838323C7.06682 0.106653 5.9184 0.326946 4.83203 0.735862C2.9522 1.46101 1.46561 2.94484 0.738401 4.82176C0.330251 5.90785 0.109617 7.05542 0.0872274 8.21557C0.0205241 9.70918 0 10.1824 0 13.9753C0 17.7683 0 18.2494 0.0872274 19.7351C0.11055 20.8961 0.329785 22.0419 0.738868 23.1303C1.46794 25.0067 2.95454 26.4901 4.83436 27.2162C5.91887 27.6405 7.06775 27.8766 8.23156 27.9148C9.72889 27.98 10.2033 28 14.0002 28C17.7972 28 18.2837 28 19.7689 27.9148C20.9304 27.891 22.0797 27.6712 23.168 27.2641C25.0473 26.5367 26.533 25.0528 27.2621 23.1764C27.6711 22.0898 27.8904 20.9441 27.9137 19.7826C27.9804 18.289 28.0009 17.8158 28.0009 14.0228C28.0009 10.2299 28.0009 9.74877 27.9137 8.26307C27.8955 7.08663 27.6739 5.92229 27.2593 4.82129L27.2583 4.82176ZM25.3645 19.62C25.3547 20.5147 25.191 21.401 24.8808 22.2407C24.4088 23.4614 23.4418 24.4264 22.2187 24.8968C21.387 25.2047 20.5092 25.3681 19.622 25.3798C18.1447 25.4482 17.7282 25.465 13.9405 25.465C10.1529 25.465 9.76247 25.465 8.25768 25.3798C7.37142 25.3691 6.49354 25.2056 5.66279 24.8968C4.43554 24.4287 3.46437 23.4637 2.98999 22.2407C2.68446 21.4103 2.52073 20.5343 2.50627 19.6498C2.43957 18.1749 2.42371 17.7589 2.42371 13.9772C2.42371 10.1954 2.42371 9.80745 2.50627 8.30313C2.51653 7.40892 2.67979 6.52309 2.98999 5.6843C3.46437 4.45941 4.436 3.49534 5.66279 3.02635C6.49401 2.71896 7.37142 2.55595 8.25768 2.54338C9.73635 2.47678 10.1515 2.45815 13.9405 2.45815C17.7296 2.45815 18.1186 2.45815 19.622 2.54338C20.5087 2.55409 21.3875 2.71757 22.2187 3.02635C23.4418 3.49814 24.4083 4.46314 24.8808 5.6843C25.1863 6.5147 25.3501 7.39075 25.3645 8.27518C25.4312 9.75156 25.4485 10.1661 25.4485 13.9492C25.4485 17.7324 25.4485 18.1376 25.3818 19.6219H25.3645V19.6205V19.62Z" fill="#A39991"/>
</g>
<defs>
<clipPath id="clip0_124_1541">
<rect width="28" height="28" fill="white"/>
</clipPath>
</defs>
</svg>
